<mxfile host="app.diagrams.net" modified="2023-10-17T06:26:25.531Z" agent="Mozilla/5.0 (Windows NT 10.0; Win64; x64) AppleWebKit/537.36 (KHTML, like Gecko) Chrome/118.0.0.0 Safari/537.36" version="22.0.4" etag="l4R5742rYXZ4axMcC1ie" type="github">
  <diagram name="PÃ¡gina-1" id="NhIw67ob6th1jcusHYFo">
    <mxGraphModel>
      <root>
        <mxCell id="0" />
        <mxCell id="1" parent="0" />
      </root>
    </mxGraphModel>
  </diagram>
</mxfile>
